HIERARCHY
ROOT Hips
{
  OFFSET 5.84602e-005 68.8428 3.50346
  CHANNELS 6 Xposition Yposition Zposition Zrotation Xrotation Yrotation
  JOINT Spine
  {
    OFFSET 0 8.597 -4.6522
    CHANNELS 3 Zrotation Xrotation Yrotation
    JOINT Spine1
    {
      OFFSET 0 7.8454 0.4098
      CHANNELS 3 Zrotation Xrotation Yrotation
      JOINT Spine2
      {
        OFFSET 0 9.7078 -2.1609
        CHANNELS 3 Zrotation Xrotation Yrotation
        JOINT Neck
        {
          OFFSET 0 21.8761 -0.4549
          CHANNELS 3 Zrotation Xrotation Yrotation
          JOINT Head
          {
            OFFSET 0 12.3537 3.3602
            CHANNELS 3 Zrotation Xrotation Yrotation
            End Site
            {
              OFFSET 0.0001 18.9506 0.5657
            }
          }
        }
        JOINT LeftShoulder
        {
          OFFSET 2.2086 21.1115 7.2329
          CHANNELS 3 Zrotation Xrotation Yrotation
          JOINT LeftArm
          {
            OFFSET 13.1193 3.0282 -4.8998
            CHANNELS 3 Zrotation Xrotation Yrotation
            JOINT LeftForeArm
            {
              OFFSET 27.4081 -0.0973053 -0.2375
              CHANNELS 3 Zrotation Xrotation Yrotation
              JOINT LeftHand
              {
                OFFSET 22.8641 0.0662994 -0.1369
                CHANNELS 3 Zrotation Xrotation Yrotation
                JOINT LeftHandIndex1
                {
                  OFFSET 8.8614 0.775009 2.4612
                  CHANNELS 3 Zrotation Xrotation Yrotation
                  JOINT LeftHandIndex2
                  {
                    OFFSET 3.3146 -0.808304 0.5841
                    CHANNELS 3 Zrotation Xrotation Yrotation
                    JOINT LeftHandIndex3
                    {
                      OFFSET 2.2628 -0.552002 0.3989
                      CHANNELS 3 Zrotation Xrotation Yrotation
                      End Site
                      {
                        OFFSET 1.6102 -0.4807 0.2612
                      }
                    }
                  }
                }
                JOINT LeftHandMiddle1
                {
                  OFFSET 8.9937 0.895004 0.2143
                  CHANNELS 3 Zrotation Xrotation Yrotation
                  JOINT LeftHandMiddle2
                  {
                    OFFSET 4.0984 0.0113983 -0.0242
                    CHANNELS 3 Zrotation Xrotation Yrotation
                    JOINT LeftHandMiddle3
                    {
                      OFFSET 2.2716 0.00689697 -0.0138001
                      CHANNELS 3 Zrotation Xrotation Yrotation
                      End Site
                      {
                        OFFSET 2.0404 -0.1441 0.0027
                      }
                    }
                  }
                }
                JOINT LeftHandRing1
                {
                  OFFSET 8.5234 0.597198 -2.0164
                  CHANNELS 3 Zrotation Xrotation Yrotation
                  JOINT LeftHandRing2
                  {
                    OFFSET 3.7188 -0.188293 -0.2328
                    CHANNELS 3 Zrotation Xrotation Yrotation
                    JOINT LeftHandRing3
                    {
                      OFFSET 2.1191 -0.106598 -0.1332
                      CHANNELS 3 Zrotation Xrotation Yrotation
                      End Site
                      {
                        OFFSET 1.8737 -0.2304 -0.0886
                      }
                    }
                  }
                }
                JOINT LeftHandPinky1
                {
                  OFFSET 7.9094 -0.601089 -3.4825
                  CHANNELS 3 Zrotation Xrotation Yrotation
                  JOINT LeftHandPinky2
                  {
                    OFFSET 2.2874 -0.477005 -0.6314
                    CHANNELS 3 Zrotation Xrotation Yrotation
                    JOINT LeftHandPinky3
                    {
                      OFFSET 1.6774 -0.349396 -0.4633
                      CHANNELS 3 Zrotation Xrotation Yrotation
                      End Site
                      {
                        OFFSET 1.4888 -0.4091 -0.3416
                      }
                    }
                  }
                }
                JOINT LeftHandThumb1
                {
                  OFFSET 1.833 -1.3875 1.3896
                  CHANNELS 3 Zrotation Xrotation Yrotation
                  JOINT LeftHandThumb2
                  {
                    OFFSET 3.4129 -1.121 2.5732
                    CHANNELS 3 Zrotation Xrotation Yrotation
                    JOINT LeftHandThumb3
                    {
                      OFFSET 2.2474 -0.804199 1.6192
                      CHANNELS 3 Zrotation Xrotation Yrotation
                      End Site
                      {
                        OFFSET 1.6527 -0.5689 1.1317
                      }
                    }
                  }
                }
              }
            }
          }
        }
        JOINT RightShoulder
        {
          OFFSET -2.2086 21.1115 7.2329
          CHANNELS 3 Zrotation Xrotation Yrotation
          JOINT RightArm
          {
            OFFSET -13.1216 3.0287 -4.9007
            CHANNELS 3 Zrotation Xrotation Yrotation
            JOINT RightForeArm
            {
              OFFSET -27.4081 -0.0973053 -0.2375
              CHANNELS 3 Zrotation Xrotation Yrotation
              JOINT RightHand
              {
                OFFSET -22.8641 0.0664063 -0.1369
                CHANNELS 3 Zrotation Xrotation Yrotation
                JOINT RightHandIndex1
                {
                  OFFSET -8.8614 0.774994 2.4612
                  CHANNELS 3 Zrotation Xrotation Yrotation
                  JOINT RightHandIndex2
                  {
                    OFFSET -3.3146 -0.808304 0.5841
                    CHANNELS 3 Zrotation Xrotation Yrotation
                    JOINT RightHandIndex3
                    {
                      OFFSET -2.2628 -0.552002 0.3989
                      CHANNELS 3 Zrotation Xrotation Yrotation
                      End Site
                      {
                        OFFSET -1.6102 -0.4807 0.2612
                      }
                    }
                  }
                }
                JOINT RightHandMiddle1
                {
                  OFFSET -8.9937 0.894989 0.2143
                  CHANNELS 3 Zrotation Xrotation Yrotation
                  JOINT RightHandMiddle2
                  {
                    OFFSET -4.0984 0.0113983 -0.0242
                    CHANNELS 3 Zrotation Xrotation Yrotation
                    JOINT RightHandMiddle3
                    {
                      OFFSET -2.2716 0.00691223 -0.0138001
                      CHANNELS 3 Zrotation Xrotation Yrotation
                      End Site
                      {
                        OFFSET -2.0404 -0.1441 0.0027
                      }
                    }
                  }
                }
                JOINT RightHandRing1
                {
                  OFFSET -8.5234 0.597198 -2.0164
                  CHANNELS 3 Zrotation Xrotation Yrotation
                  JOINT RightHandRing2
                  {
                    OFFSET -3.7188 -0.188309 -0.2328
                    CHANNELS 3 Zrotation Xrotation Yrotation
                    JOINT RightHandRing3
                    {
                      OFFSET -2.1191 -0.106598 -0.1332
                      CHANNELS 3 Zrotation Xrotation Yrotation
                      End Site
                      {
                        OFFSET -1.8737 -0.2304 -0.0886
                      }
                    }
                  }
                }
                JOINT RightHandPinky1
                {
                  OFFSET -7.9094 -0.601105 -3.4825
                  CHANNELS 3 Zrotation Xrotation Yrotation
                  JOINT RightHandPinky2
                  {
                    OFFSET -2.2874 -0.477005 -0.6314
                    CHANNELS 3 Zrotation Xrotation Yrotation
                    JOINT RightHandPinky3
                    {
                      OFFSET -1.6774 -0.349396 -0.4633
                      CHANNELS 3 Zrotation Xrotation Yrotation
                      End Site
                      {
                        OFFSET -1.4888 -0.4091 -0.3416
                      }
                    }
                  }
                }
                JOINT RightHandThumb1
                {
                  OFFSET -1.833 -1.38751 1.3896
                  CHANNELS 3 Zrotation Xrotation Yrotation
                  JOINT RightHandThumb2
                  {
                    OFFSET -3.41299 -1.12099 2.5732
                    CHANNELS 3 Zrotation Xrotation Yrotation
                    JOINT RightHandThumb3
                    {
                      OFFSET -2.24741 -0.804108 1.6192
                      CHANNELS 3 Zrotation Xrotation Yrotation
                      End Site
                      {
                        OFFSET -1.6527 -0.5689 1.1317
                      }
                    }
                  }
                }
              }
            }
          }
        }
      }
    }
  }
  JOINT RightUpLeg
  {
    OFFSET -9.1966 3.8861 -0.7581
    CHANNELS 3 Zrotation Xrotation Yrotation
    JOINT RightLeg
    {
      OFFSET -0.7359 -41.0265 0
      CHANNELS 3 Zrotation Xrotation Yrotation
      JOINT RightFoot
      {
        OFFSET 0 -40.2855 0
        CHANNELS 3 Zrotation Xrotation Yrotation
        JOINT RightToeBase
        {
          OFFSET 0 -5.6122 11.7359
          CHANNELS 3 Zrotation Xrotation Yrotation
          End Site
          {
            OFFSET 0 0 7.8731
          }
        }
      }
    }
  }
  JOINT LeftUpLeg
  {
    OFFSET 9.1965 3.8864 -0.7581
    CHANNELS 3 Zrotation Xrotation Yrotation
    JOINT LeftLeg
    {
      OFFSET 0.7359 -41.0268 0
      CHANNELS 3 Zrotation Xrotation Yrotation
      JOINT LeftFoot
      {
        OFFSET 0 -40.2855 0
        CHANNELS 3 Zrotation Xrotation Yrotation
        JOINT LeftToeBase
        {
          OFFSET 0 -5.6122 11.7359
          CHANNELS 3 Zrotation Xrotation Yrotation
          End Site
          {
            OFFSET 0 0 7.8731
          }
        }
      }
    }
  }
}
MOTION
Frames:	4
Frame Time:	0.0333333
5.84602e-005 68.8428 3.50346 0 0 -0 0 0 -0 0 0 -0 0 0 -0 0 0 -0 0 0 -0 0 0 -0 0 0 -0 0 0 -0 0 0 -0 0 0 -0 0 0 -0 0 0 -0 0 0 -0 -0.0146107 -8.87603e-005 -2.63497e-007 2.99804e-018 -2.42657e-020 -1.42182e-022 0 0 -0 -0.0187562 -0.001176 5.858e-005 5.06224e-018 3.88251e-019 1.21329e-020 0 0 -0 -0.012269 -0.00324817 0.000675346 -1.74678e-018 3.88251e-019 -0 0 0 -0 0 0 -0 0 0 -0 0 0 -0 0 0 -0 0 0 -0 0 0 -0 0 0 -0 0 0 -0 0 0 -0 0 0 -0 0.0149955 -9.10982e-005 2.64101e-007 -9.69331e-018 1.21329e-020 -4.7394e-023 0 0 -0 0.0189956 -0.00119102 -5.96516e-005 -5.41541e-019 0 2.42657e-020 0 0 -0 0.0122698 -0.00324857 -0.000673756 -2.00796e-019 0 -1.94126e-019 0 0 -0 0 0 -0 0 0 -0 3.39842 1.33031 -0.0637918 -5.65207e-008 0.834868 -0.000436188 -3.39935 -2.16518 -0.0642563 -8.89002e-024 -1.18485e-023 -1.48106e-024 -3.39844 1.35642 0.0640283 -3.18788e-007 0.782166 -0.000588827 3.39931 -2.13858 0.0634662 1.1399e-023 0 -0 
0.00204617 30.045 7.33703 -0 -62.9733 -0 -0.167673 3.7265 -0.215197 -0.322312 7.45359 -0.420778 -0.322312 7.45358 -0.420778 0.567383 0.434993 -0.0677744 -1.32407e-007 12.6203 6.38194e-009 1.21496 -8.20627 -6.81577 -52.6828 17.7618 9.44919 -3.00015 -11.9959 -1.06749e-006 -5.44916 -8.61029 -17.4244 -3.18055e-015 6.36111e-015 -0 -3.18055e-015 0 -3.18055e-015 -3.18055e-015 -3.18055e-015 -0 -3.18055e-015 6.36111e-015 -0 -0.0145857 -8.57649e-005 2.21061e-006 -3.53113e-031 -3.18055e-015 -6.36111e-015 -3.18055e-015 6.36111e-015 -0 -0.0187607 -0.00118107 6.07349e-005 6.36111e-015 4.77083e-015 -6.36111e-015 -3.18055e-015 6.36111e-015 -0 -0.0122332 -0.00323916 0.000666083 3.18055e-015 0 -3.18055e-015 -3.18055e-015 6.36111e-015 -0 -3.18055e-015 0 -3.18055e-015 -3.18055e-015 -3.18055e-015 -0 10.8576 -5.7637 13.9438 34.629 12.6375 9.76926 17.2688 -22.8471 11.8797 17.8552 11.3276 -5.53216 4.94259e-006 2.36088e-006 -2.29418e-007 3.95893e-006 7.57102e-007 -2.58744e-006 1.98785e-015 3.97569e-016 3.18055e-015 4.94259e-006 2.36088e-006 -2.29418e-007 0.0149671 -8.85549e-005 3.74327e-006 -1.19271e-015 -6.75868e-015 -6.36111e-015 4.94259e-006 2.36088e-006 -2.29418e-007 0.019052 -0.00119315 -5.92756e-005 -1.59028e-015 4.96962e-015 -3.18055e-015 4.94259e-006 2.36088e-006 -2.29418e-007 0.0122777 -0.00324727 -0.000679952 -1.59028e-015 1.98785e-015 -6.36111e-015 4.94259e-006 2.36088e-006 -2.29418e-007 3.95893e-006 7.57102e-007 -2.58744e-006 1.98785e-015 3.97569e-016 3.18055e-015 -3.19789 -15.4341 -5.29823 -3.07326 70.1941 2.25189 -5.50886 1.46765 -0.0782003 -7.95139e-016 2.38542e-015 7.95139e-016 3.21575 -21.2301 5.92612 9.23096 79.3555 -9.62799 5.60723 0.87784 1.32625 -2.13071e-007 8.82198e-009 7.10942e-009 
0.00383813 2.61577 4.87136 -180 -71.9435 -180 -0.257323 6.38122 -0.392022 -0.474851 12.764 -0.762159 -0.474851 12.764 -0.762159 0.974187 0.688166 -0.115325 1.63733e-007 21.5855 -5.09145e-007 0.826913 -13.8302 -11.9234 -94.451 29.6426 17.8311 -5.14798 -20.5839 2.7323e-005 -12.1595 -13.4552 -30.37 1.59028e-015 1.98785e-016 3.18055e-015 3.18055e-015 0 1.59028e-015 3.18055e-015 3.97569e-016 1.59028e-015 1.59028e-015 1.98785e-016 3.18055e-015 -0.0145911 -8.51795e-005 4.09612e-006 6.36111e-015 9.14409e-015 3.18055e-015 1.59028e-015 1.98785e-016 3.18055e-015 -0.0187816 -0.00117455 6.10711e-005 -1.59028e-015 -2.38542e-015 3.18055e-015 1.59028e-015 1.98785e-016 3.18055e-015 -0.0123028 -0.00325665 0.000672523 1.59028e-015 1.39149e-015 1.59028e-015 1.59028e-015 1.98785e-016 3.18055e-015 3.18055e-015 0 1.59028e-015 3.18055e-015 3.97569e-016 1.59028e-015 20.3293 -9.25754 24.1198 56.6104 21.0529 17.6189 36.7099 -37.4633 23.9082 32.0925 19.2942 -9.80321 -1.09076e-006 -2.59493e-007 -4.31458e-009 -2.37154e-006 -2.04194e-007 -3.43963e-007 6.36111e-015 3.18055e-015 -0 -1.09076e-006 -2.59493e-007 -4.31458e-009 0.0150011 -9.12059e-005 -5.79341e-007 1.0887e-006 2.59506e-007 4.27981e-009 -1.09076e-006 -2.59493e-007 -4.31458e-009 0.0190122 -0.00118747 -5.59275e-005 3.18055e-015 3.18055e-015 -3.18055e-015 -1.09076e-006 -2.59493e-007 -4.31458e-009 0.0122788 -0.00325479 -0.00067931 3.18055e-015 9.54166e-015 -0 -1.09076e-006 -2.59493e-007 -4.31458e-009 -2.37154e-006 -2.04194e-007 -3.43963e-007 6.36111e-015 3.18055e-015 -0 -9.18797 -26.1854 -11.0883 -172.493 61.499 170.659 -6.79531 4.81757 -2.51071 -1.43927e-007 -8.63887e-007 2.96131e-008 10.0855 -35.7546 14.144 173.257 45.5279 -170.179 7.01265 3.43929 3.46394 5.31254e-008 -3.99087e-009 -3.00904e-009 
0.00421945 1.34559 4.67211 -180 -69.9522 -180 -0.261396 6.45929 -0.399448 -0.481768 12.9202 -0.776494 -0.481768 12.9202 -0.776494 0.99212 0.503709 -0.114172 9.63763e-008 21.7463 1.13838e-007 0.676585 -13.885 -12.1391 -96.3896 30.1379 18.2562 -5.24287 -20.9632 -1.579e-006 -11.3354 -13.7481 -30.6296 3.18055e-015 1.19271e-015 -1.59028e-015 3.18055e-015 7.95139e-016 -0 1.59028e-015 3.97569e-016 -0 3.18055e-015 1.19271e-015 -1.59028e-015 -0.0146145 -8.20003e-005 -1.04386e-006 -1.59028e-015 5.1684e-015 -0 3.18055e-015 1.19271e-015 -1.59028e-015 -0.018725 -0.00117625 5.99155e-005 -1.59028e-015 -2.78299e-015 -1.59028e-015 3.18055e-015 1.19271e-015 -1.59028e-015 -0.0122862 -0.00325661 0.000680426 1.59028e-015 3.18055e-015 1.59028e-015 3.18055e-015 1.19271e-015 -1.59028e-015 3.18055e-015 7.95139e-016 -0 1.59028e-015 3.97569e-016 -0 20.7801 -9.20648 24.5036 57.4421 21.3784 18.1876 37.7489 -38.0431 24.564 32.8912 19.7603 -9.79807 6.36111e-015 0 -6.36111e-015 4.05844e-006 1.60094e-006 -3.84956e-006 -0 -6.36111e-015 -0 6.36111e-015 0 -6.36111e-015 0.015002 -9.1602e-005 -3.74864e-006 3.18055e-015 -6.36111e-015 -6.36111e-015 6.36111e-015 0 -6.36111e-015 0.018976 -0.00118846 -5.85204e-005 -6.36111e-015 1.27222e-014 -3.18055e-015 6.36111e-015 0 -6.36111e-015 0.0122448 -0.00323644 -0.000675328 -1.05934e-030 -9.54166e-015 -6.36111e-015 6.36111e-015 0 -6.36111e-015 4.05844e-006 1.60094e-006 -3.84956e-006 -0 -6.36111e-015 -0 -9.67467 -26.6213 -11.6453 -172.801 59.3728 170.792 -7.03222 4.93132 -2.50286 -6.81197e-008 8.46732e-007 -1.09874e-008 10.7602 -36.3128 15.0774 173.456 43.1014 -170.029 7.33314 3.50121 3.54077 -3.50836e-007 -4.00867e-007 1.48461e-008 
